<?xml version="1.0" standalone="no"?>
<!DOCTYPE svg PUBLIC "-//W3C//DTD SVG 20010904//EN"
 "http://www.w3.org/TR/2001/REC-SVG-20010904/DTD/svg10.dtd">
<svg version="1.0" xmlns="http://www.w3.org/2000/svg"
 width="900.000000pt" height="843.000000pt" viewBox="0 0 900.000000 843.000000"
 preserveAspectRatio="xMidYMid meet">
<metadata>
Created by potrace 1.10, written by Peter Selinger 2001-2011
</metadata>
<g transform="translate(0.000000,843.000000) scale(0.100000,-0.100000)"
fill="#000000" stroke="none">
<path d="M3805 6829 c-193 -16 -294 -28 -314 -38 -11 -6 -36 -11 -56 -11 -19
0 -52 -7 -72 -15 -19 -8 -47 -15 -62 -15 -14 0 -39 -7 -55 -15 -15 -8 -38 -15
-50 -15 -12 0 -31 -7 -42 -15 -10 -8 -27 -15 -37 -15 -18 0 -32 -5 -127 -47
-19 -8 -48 -21 -65 -28 -28 -11 -154 -73 -213 -104 -15 -8 -29 -17 -32 -21 -3
-4 -15 -10 -27 -14 -13 -4 -23 -11 -23 -16 0 -4 -11 -11 -25 -14 -14 -4 -25
-11 -25 -16 0 -6 -5 -10 -11 -10 -5 0 -30 -15 -53 -32 -24 -18 -54 -40 -66
-48 -12 -8 -28 -19 -34 -25 -6 -5 -34 -28 -61 -50 -123 -98 -319 -293 -366
-365 -9 -14 -25 -35 -35 -47 -11 -11 -26 -31 -34 -43 -8 -12 -19 -28 -25 -34
-36 -41 -175 -266 -175 -284 0 -5 -7 -15 -15 -22 -8 -7 -15 -19 -15 -27 0 -8
-6 -21 -14 -29 -16 -15 -10 -54 8 -54 17 0 56 38 56 54 0 7 11 33 24 57 14 24
34 62 46 84 46 84 165 254 230 329 122 140 182 202 275 283 33 28 76 65 95 82
19 17 38 31 41 31 3 0 15 8 27 18 11 9 30 24 42 32 12 8 39 27 59 41 20 14 43
28 51 32 8 4 29 16 45 27 17 11 42 25 58 31 15 6 27 15 27 20 0 5 9 9 19 9 11
0 22 4 25 9 6 8 45 28 134 66 18 8 47 21 65 29 17 9 44 18 60 22 15 3 30 10
33 15 3 5 14 9 26 9 11 0 32 6 46 14 26 13 49 20 177 52 228 56 488 78 760 63
110 -6 209 -15 220 -19 11 -5 49 -14 85 -19 95 -15 171 -32 207 -47 17 -8 42
-14 55 -14 12 0 32 -7 42 -15 11 -8 32 -15 48 -15 15 0 28 -4 28 -9 0 -5 12
-12 28 -15 15 -4 42 -13 59 -22 18 -8 47 -21 65 -28 64 -28 173 -81 178 -88 3
-4 17 -12 30 -18 37 -15 112 -61 128 -77 7 -7 18 -13 23 -13 6 0 16 -6 23 -12
8 -7 24 -20 36 -28 33 -22 114 -83 120 -90 3 -3 27 -24 55 -45 74 -59 252
-240 315 -320 30 -39 58 -74 62 -80 22 -27 98 -136 98 -139 0 -2 16 -28 35
-58 20 -29 43 -70 52 -90 9 -21 20 -38 25 -38 4 0 8 -9 8 -19 0 -11 7 -26 15
-35 8 -8 15 -20 15 -26 0 -7 6 -24 13 -38 8 -15 22 -45 31 -67 10 -22 24 -53
32 -68 8 -16 14 -36 14 -46 0 -9 7 -26 15 -37 8 -10 15 -31 15 -45 0 -14 7
-34 15 -45 8 -10 15 -32 15 -47 0 -16 6 -43 14 -60 8 -18 17 -58 21 -89 3 -32
11 -60 16 -63 5 -4 9 -32 9 -63 0 -64 10 -88 34 -79 21 8 21 125 1 182 -8 22
-15 54 -15 70 0 17 -7 43 -15 59 -8 15 -15 38 -15 50 0 11 -7 34 -15 50 -8 15
-15 38 -15 50 0 12 -7 31 -15 42 -8 10 -15 27 -15 37 0 11 -6 31 -13 45 -8 15
-21 44 -30 65 -36 84 -50 113 -58 127 -5 8 -21 41 -36 73 -15 31 -31 57 -35
57 -4 0 -8 6 -8 13 0 30 -195 307 -287 408 -132 145 -318 317 -382 353 -9 5
-21 14 -27 20 -6 6 -22 18 -34 26 -12 8 -33 23 -45 33 -13 9 -28 17 -34 17 -6
0 -11 4 -11 10 0 5 -11 12 -25 16 -14 3 -25 9 -25 13 0 3 -21 18 -47 31 -27
14 -50 28 -53 31 -3 3 -41 23 -85 43 -44 21 -92 45 -107 52 -14 8 -33 14 -42
14 -9 0 -16 4 -16 9 0 5 -14 12 -31 16 -17 4 -42 13 -57 21 -15 8 -36 14 -47
14 -11 0 -29 7 -39 15 -11 8 -30 15 -42 15 -12 0 -35 7 -50 15 -16 8 -42 15
-57 15 -16 0 -38 5 -49 11 -12 7 -47 15 -77 19 -31 5 -74 13 -96 19 -22 6 -65
11 -96 11 -31 0 -69 4 -85 9 -41 13 -261 19 -369 10z"/>
<path d="M3668 5895 c-2 -3 -31 -10 -64 -15 -57 -10 -181 -53 -254 -88 -157
-76 -329 -220 -406 -339 -35 -55 -64 -70 -108 -59 -13 3 -46 1 -72 -5 -27 -6
-91 -14 -142 -19 -51 -5 -99 -13 -105 -18 -7 -5 -50 -12 -96 -15 -46 -3 -88
-10 -94 -16 -6 -6 -40 -11 -77 -11 -36 -1 -83 -7 -105 -15 -22 -8 -60 -15 -85
-15 -25 0 -58 -7 -74 -15 -15 -8 -48 -15 -73 -15 -25 0 -59 -6 -76 -14 -18 -8
-54 -16 -82 -19 -27 -3 -51 -10 -53 -16 -2 -6 -23 -11 -46 -11 -23 0 -51 -7
-62 -15 -10 -8 -33 -15 -51 -15 -17 0 -38 -7 -47 -15 -8 -8 -26 -15 -39 -15
-14 0 -30 -7 -37 -15 -7 -8 -23 -15 -36 -15 -12 0 -29 -7 -38 -15 -8 -8 -23
-15 -34 -15 -11 0 -25 -7 -32 -15 -7 -8 -20 -15 -30 -15 -10 0 -23 -7 -30 -15
-7 -8 -18 -15 -26 -15 -7 0 -19 -6 -26 -13 -7 -7 -20 -16 -28 -20 -41 -20
-166 -103 -187 -124 -10 -10 -43 -38 -73 -61 -61 -49 -76 -74 -54 -93 12 -9
25 -2 72 42 31 30 62 58 69 64 7 5 19 16 27 23 8 6 18 12 22 12 3 0 23 12 43
28 40 30 67 47 96 62 11 6 34 19 50 30 17 11 37 22 45 26 8 3 22 10 30 15 8 5
22 12 30 15 24 9 83 35 113 50 16 8 35 14 44 14 8 0 27 6 41 14 15 8 44 18 65
21 20 3 37 10 37 15 0 6 19 10 43 10 24 0 52 7 63 15 10 8 37 15 59 15 22 0
53 7 69 15 15 8 48 15 73 15 25 0 59 6 76 14 18 8 63 17 101 20 37 3 73 10 80
15 6 4 48 11 93 13 45 3 88 9 95 15 7 6 52 13 101 16 48 2 93 9 100 15 6 5 51
12 100 15 48 2 93 10 101 16 7 6 38 12 67 14 44 2 53 -1 50 -13 -28 -109 -22
-165 22 -210 57 -58 181 -93 387 -110 74 -6 188 -15 253 -21 66 -5 127 -14
137 -19 10 -6 29 -10 43 -10 54 0 232 -70 280 -110 7 -6 21 -18 33 -28 37 -31
77 -93 96 -145 16 -48 16 -56 2 -116 -33 -136 -183 -317 -402 -486 -7 -5 -18
-15 -25 -20 -12 -10 -58 -41 -89 -60 -9 -5 -54 -33 -100 -61 -45 -28 -103 -61
-128 -73 -48 -23 -63 -31 -95 -49 -34 -19 -217 -106 -272 -129 -75 -31 -109
-47 -135 -60 -14 -7 -34 -13 -45 -13 -10 0 -27 -7 -37 -15 -11 -8 -29 -15 -41
-15 -12 0 -30 -7 -41 -15 -10 -8 -27 -15 -37 -15 -11 0 -31 -6 -45 -14 -15 -8
-54 -22 -87 -31 -33 -9 -73 -21 -90 -27 -16 -5 -41 -12 -55 -14 -14 -3 -47
-11 -75 -19 -27 -8 -86 -21 -130 -30 -44 -9 -96 -21 -115 -27 -19 -5 -69 -14
-110 -19 -41 -5 -102 -13 -135 -18 -102 -16 -413 -13 -478 4 -32 8 -67 15 -77
15 -39 0 -170 71 -219 118 -113 108 -120 254 -21 436 35 66 54 89 145 181 85
84 132 125 144 125 5 0 16 6 23 13 21 19 50 36 81 48 15 6 27 15 27 20 0 5 10
9 23 9 13 0 32 7 43 15 10 8 29 15 41 15 12 0 28 6 35 13 7 8 31 17 53 20 22
4 41 11 43 17 2 5 20 10 41 10 20 0 46 7 57 15 11 8 41 14 72 15 30 0 68 7 85
15 19 9 70 16 127 17 87 3 95 5 95 23 0 19 -7 20 -106 20 -62 0 -116 -5 -130
-12 -13 -6 -53 -14 -88 -16 -38 -2 -67 -9 -69 -15 -2 -7 -20 -12 -41 -12 -20
0 -46 -7 -57 -15 -10 -8 -31 -15 -45 -15 -14 0 -34 -7 -45 -15 -10 -8 -28 -15
-39 -15 -11 0 -29 -6 -40 -14 -11 -7 -32 -16 -47 -20 -16 -3 -28 -11 -28 -16
0 -6 -8 -10 -19 -10 -10 0 -24 -7 -31 -15 -7 -8 -17 -15 -22 -15 -8 0 -65 -37
-78 -50 -3 -3 -18 -14 -34 -24 -43 -27 -170 -151 -214 -209 -92 -119 -132
-227 -132 -350 0 -74 4 -91 30 -143 33 -63 117 -149 172 -175 105 -51 151 -65
303 -89 145 -23 297 -25 431 -5 54 8 121 15 148 15 44 0 131 16 231 41 22 6
60 14 85 19 25 4 59 12 75 18 17 6 57 18 90 27 33 9 74 21 90 27 17 5 47 13
68 18 21 4 44 13 50 19 6 6 20 11 32 11 12 0 30 7 41 15 10 8 26 15 34 15 8 0
44 14 80 31 36 17 79 36 95 43 106 45 330 164 476 251 224 135 349 229 477
356 127 126 198 222 254 343 17 38 18 168 1 174 -7 2 -13 11 -13 20 0 10 -16
42 -36 72 -59 91 -224 202 -323 217 -20 3 -40 9 -46 13 -5 4 -35 11 -65 14
-30 4 -75 11 -100 17 -25 5 -103 14 -175 20 -292 22 -330 28 -415 67 -87 40
-101 91 -52 192 30 61 11 54 195 78 38 5 74 15 80 21 6 6 29 11 52 11 23 0 50
7 61 15 10 8 33 15 50 15 16 0 39 7 50 15 10 8 28 15 39 15 11 0 29 6 40 14
11 7 32 16 48 20 15 3 27 11 27 16 0 6 11 10 24 10 13 0 29 7 36 15 7 8 16 15
21 15 14 0 110 70 144 104 98 100 99 153 2 194 -27 12 -149 17 -159 7z m160
-61 c12 -4 22 -14 22 -24 0 -29 -147 -170 -178 -170 -5 0 -15 -7 -22 -15 -7
-8 -20 -15 -30 -15 -10 0 -23 -7 -30 -15 -7 -8 -23 -15 -35 -15 -12 0 -28 -7
-35 -15 -7 -8 -25 -15 -39 -15 -15 0 -36 -7 -47 -15 -10 -8 -30 -15 -44 -15
-14 0 -38 -7 -54 -15 -15 -8 -40 -15 -55 -15 -14 0 -38 -6 -53 -14 -14 -8 -50
-17 -80 -21 -29 -4 -62 -14 -73 -21 -25 -18 -55 -18 -55 -1 0 31 251 257 285
257 7 0 15 4 17 9 2 4 39 25 83 45 44 21 88 42 98 47 10 5 37 14 60 19 23 5
58 13 77 18 40 11 154 15 188 6z"/>
<path d="M1514 4963 c-3 -10 -10 -27 -15 -38 -6 -12 -14 -45 -19 -75 -5 -30
-13 -73 -19 -95 -6 -22 -11 -63 -11 -90 0 -28 -5 -56 -10 -61 -14 -14 13 -37
37 -32 15 3 19 17 24 73 4 39 11 88 18 110 6 22 11 54 11 71 0 17 7 45 16 62
19 40 15 86 -9 90 -10 2 -20 -4 -23 -15z"/>
<path d="M4500 4408 c-19 -6 -52 -24 -73 -41 -100 -79 -127 -169 -64 -221 32
-27 33 -28 159 -24 84 2 131 7 140 16 6 6 29 12 50 12 21 0 55 7 75 15 19 8
52 15 72 15 20 0 49 7 65 15 15 8 40 15 55 15 14 0 39 7 55 15 15 8 45 15 65
15 20 0 49 7 65 15 15 8 42 15 60 15 17 1 42 7 56 15 14 8 39 14 55 15 17 0
42 7 57 14 37 19 168 33 168 17 0 -6 -13 -33 -30 -59 -16 -27 -30 -52 -30 -56
0 -4 -7 -14 -16 -23 -22 -22 -14 -67 12 -71 12 -2 28 3 36 10 20 19 76 58 83
58 4 0 13 6 20 13 23 20 39 31 76 51 19 10 58 31 87 47 29 16 64 29 78 29 22
0 70 -23 84 -41 3 -3 30 -23 60 -44 30 -21 57 -41 60 -45 11 -15 158 -80 182
-80 13 0 30 -6 36 -12 9 -9 52 -13 142 -13 90 0 133 4 142 13 6 6 30 12 52 12
23 0 54 7 70 15 15 8 39 15 51 15 13 0 30 7 39 15 8 8 25 15 38 15 13 0 33 7
44 15 10 8 31 15 45 15 15 0 32 6 38 14 7 8 27 17 46 20 19 4 35 11 35 16 0 6
11 10 24 10 13 0 29 7 36 15 7 8 23 15 35 15 12 0 28 7 35 15 7 8 20 15 30 15
26 0 43 23 28 38 -17 17 -58 15 -64 -3 -4 -8 -18 -15 -34 -15 -15 0 -33 -7
-40 -15 -7 -8 -19 -15 -27 -15 -8 0 -27 -6 -41 -13 -15 -8 -42 -21 -60 -30
-19 -9 -41 -17 -51 -17 -9 0 -26 -7 -37 -15 -10 -8 -31 -15 -45 -15 -14 0 -34
-7 -45 -15 -10 -8 -31 -15 -45 -15 -14 0 -34 -7 -45 -15 -10 -8 -36 -15 -56
-15 -21 0 -58 -7 -84 -16 -52 -17 -165 -15 -249 5 -71 18 -168 68 -234 123
-138 115 -196 126 -304 62 -74 -44 -197 -136 -197 -146 0 -5 -4 -8 -10 -8 -12
0 -14 27 -2 32 17 8 54 95 50 122 -2 23 -10 31 -33 38 -37 9 -183 -6 -198 -21
-6 -6 -27 -11 -47 -11 -19 0 -48 -7 -64 -15 -15 -8 -42 -15 -60 -15 -17 0 -44
-7 -60 -15 -15 -8 -42 -15 -60 -15 -17 0 -44 -7 -60 -15 -15 -8 -42 -15 -60
-15 -17 0 -44 -7 -60 -15 -15 -8 -45 -15 -65 -15 -20 0 -49 -7 -65 -15 -15 -8
-43 -15 -62 -15 -18 0 -53 -6 -76 -14 -60 -19 -212 -30 -238 -16 -26 14 -27
50 -1 50 10 0 24 7 31 15 7 8 20 15 30 15 21 0 130 104 130 124 0 30 -42 46
-90 34z m28 -63 c-30 -36 -64 -65 -76 -65 -7 0 -15 -7 -18 -15 -8 -19 -34 -20
-34 -1 0 22 99 92 133 95 4 1 2 -6 -5 -14z"/>
<path d="M4750 3805 c-7 -8 -11 -35 -8 -67 3 -48 1 -53 -17 -50 -11 2 -40 4
-64 4 -49 -1 -78 -24 -97 -80 -32 -91 87 -190 163 -137 14 10 24 12 28 5 3 -5
12 -10 19 -10 10 0 14 39 19 161 3 89 3 168 0 175 -7 18 -27 18 -43 -1z m-16
-180 c21 -33 20 -57 -5 -89 -39 -50 -119 -20 -119 44 0 65 90 97 124 45z"/>
<path d="M4964 3786 c-10 -26 1 -51 24 -54 27 -4 38 19 22 47 -12 24 -38 28
-46 7z"/>
<path d="M7364 3774 c-8 -33 7 -48 40 -40 30 7 34 33 9 52 -27 20 -42 17 -49
-12z"/>
<path d="M3977 3744 c-4 -4 -7 -17 -7 -30 0 -15 -8 -24 -25 -28 -14 -4 -25
-13 -25 -20 0 -8 11 -17 25 -20 24 -6 25 -10 25 -81 0 -65 3 -76 22 -89 26
-19 59 -21 75 -5 17 17 4 39 -22 39 -20 0 -23 6 -28 62 -6 72 -4 78 29 78 32
0 29 33 -3 38 -15 2 -23 11 -25 30 -3 26 -26 40 -41 26z"/>
<path d="M5793 3743 c-7 -2 -13 -14 -13 -25 0 -11 -10 -28 -22 -38 l-22 -17
22 -12 c19 -10 22 -20 22 -76 0 -52 4 -70 22 -90 24 -28 69 -33 87 -11 12 15
2 27 -32 39 -15 6 -17 17 -15 69 3 54 6 63 23 66 37 7 40 22 7 34 -22 9 -32
19 -32 34 0 17 -22 39 -33 33 -1 0 -8 -3 -14 -6z"/>
<path d="M6377 3744 c-4 -4 -7 -18 -7 -31 0 -13 -7 -26 -15 -29 -21 -8 -19
-31 4 -37 17 -4 18 -12 14 -68 -4 -56 -2 -68 17 -92 17 -22 29 -27 54 -25 43
4 46 32 7 53 -29 14 -31 19 -31 69 0 52 1 54 31 60 39 7 37 39 -3 44 -21 2
-28 9 -30 30 -3 26 -26 40 -41 26z"/>
<path d="M3680 3682 c-27 -13 -36 -24 -38 -48 -3 -26 2 -35 30 -51 19 -11 46
-23 61 -27 20 -5 27 -12 25 -24 -4 -23 -54 -28 -74 -7 -20 19 -38 15 -43 -10
-5 -26 37 -55 79 -55 43 0 90 39 90 75 0 25 -41 65 -69 65 -21 1 -51 24 -51
40 0 12 24 11 93 -3 6 -1 13 8 15 20 3 18 -4 24 -35 32 -48 14 -42 14 -83 -7z"/>
<path d="M5248 3690 c-48 -15 -78 -57 -78 -110 0 -43 4 -51 40 -84 55 -50 107
-51 156 -2 31 31 34 39 34 92 0 51 -3 61 -27 81 -14 13 -33 23 -42 23 -9 0
-25 2 -36 5 -11 2 -32 0 -47 -5z m87 -60 c22 -25 22 -76 -1 -101 -38 -42 -113
-8 -114 52 0 58 77 91 115 49z"/>
<path d="M6075 3691 c-21 -4 -30 -12 -30 -26 0 -17 6 -20 45 -17 80 4 96 -31
19 -41 -51 -7 -93 -36 -97 -67 -5 -33 44 -80 84 -80 17 0 37 7 44 15 10 12 16
12 26 4 8 -6 21 -9 29 -5 12 4 15 23 15 85 0 69 -3 83 -22 105 -25 27 -67 37
-113 27z m85 -132 c0 -22 -34 -59 -55 -59 -14 0 -51 38 -44 45 8 8 74 34 87
35 6 0 12 -10 12 -21z"/>
<path d="M7030 3693 c-38 -7 -53 -23 -39 -39 9 -11 25 -13 59 -8 33 4 50 2 55
-6 10 -16 -9 -27 -58 -36 -76 -12 -102 -77 -50 -121 30 -27 84 -31 103 -8 9
11 16 13 24 5 28 -28 36 -10 36 78 -1 94 -9 114 -54 132 -28 10 -33 11 -76 3z
m80 -137 c0 -8 -8 -24 -19 -37 -16 -21 -22 -22 -45 -11 -33 15 -35 49 -3 55
46 9 67 7 67 -7z"/>
<path d="M4217 3684 c-4 -4 -7 -43 -7 -88 0 -73 2 -82 27 -108 30 -32 82 -38
103 -13 10 12 16 12 26 4 8 -6 21 -9 29 -5 13 5 15 23 13 108 -3 98 -4 103
-25 106 -22 3 -23 0 -23 -63 0 -75 -19 -115 -55 -115 -35 0 -44 19 -47 100 -2
58 -6 75 -18 78 -9 1 -19 0 -23 -4z"/>
<path d="M4965 3678 c-3 -8 -4 -59 -3 -114 3 -91 5 -99 23 -99 19 0 20 7 20
110 0 97 -2 110 -18 113 -9 2 -19 -3 -22 -10z"/>
<path d="M6617 3683 c-4 -3 -7 -38 -7 -77 0 -107 45 -161 118 -140 15 4 38 8
52 8 25 1 25 1 28 109 3 108 3 108 -20 105 -21 -3 -23 -9 -26 -77 -2 -61 -7
-78 -24 -92 -41 -37 -84 19 -76 98 3 26 4 54 1 61 -5 13 -35 17 -46 5z"/>
<path d="M7307 3676 c-9 -23 16 -36 56 -29 29 4 37 2 37 -9 0 -13 -12 -30 -79
-107 -42 -48 -26 -63 74 -68 75 -3 102 6 92 31 -5 12 -20 16 -57 16 -69 0 -68
6 23 110 39 45 41 51 26 61 -8 5 -48 9 -90 9 -58 0 -78 -4 -82 -14z"/>
<path d="M7637 3684 c-4 -4 -7 -43 -7 -88 0 -73 2 -82 27 -108 30 -32 82 -38
103 -13 10 12 16 12 26 4 8 -6 21 -9 29 -5 13 5 15 23 13 108 -3 95 -4 103
-23 103 -18 0 -20 -8 -23 -68 -3 -74 -21 -107 -58 -107 -34 0 -43 20 -46 100
-2 58 -6 75 -18 78 -9 1 -19 0 -23 -4z"/>
<path d="M1755 3089 c-4 -13 -1 -27 9 -38 9 -10 16 -21 16 -25 0 -9 43 -70 53
-74 4 -2 7 -8 7 -13 0 -9 32 -58 55 -85 6 -6 17 -22 25 -34 17 -24 18 -26 110
-136 86 -103 170 -187 310 -308 70 -61 234 -176 251 -176 5 0 9 -4 9 -10 0 -5
11 -12 25 -16 14 -3 25 -9 25 -13 0 -4 25 -20 55 -36 31 -15 58 -32 61 -36 3
-5 14 -9 25 -9 10 0 19 -4 19 -10 0 -5 12 -13 26 -16 15 -4 50 -20 80 -35 29
-16 60 -29 68 -29 8 0 27 -6 43 -14 51 -26 101 -46 116 -46 8 0 28 -7 43 -15
16 -8 41 -15 56 -15 15 0 29 -4 33 -9 3 -6 27 -13 53 -16 26 -3 58 -11 72 -16
14 -6 54 -15 90 -19 36 -5 88 -14 115 -20 67 -16 602 -15 670 0 28 6 79 15
115 20 36 4 76 13 90 19 14 5 46 13 72 16 26 3 50 10 53 16 4 5 18 9 33 9 15
0 39 6 53 14 14 7 42 16 62 20 21 4 37 11 37 16 0 6 9 10 21 10 21 0 66 17
122 46 16 8 34 14 42 14 7 0 18 7 25 15 7 8 21 15 31 15 9 0 24 7 33 15 8 8
21 15 29 15 8 0 20 7 27 15 7 8 18 15 26 15 7 0 19 6 26 13 7 6 35 23 61 37
26 13 47 28 47 32 0 5 6 8 13 8 12 0 26 9 74 50 7 5 15 10 19 10 9 0 171 126
223 174 114 105 258 257 289 305 9 14 22 31 28 36 18 17 74 92 74 100 0 4 7
13 14 19 24 18 30 62 10 70 -17 7 -44 -9 -44 -26 0 -5 -20 -36 -45 -68 -25
-32 -45 -61 -45 -64 0 -3 -8 -14 -17 -24 -10 -10 -38 -43 -63 -72 -115 -137
-274 -283 -425 -390 -38 -27 -75 -54 -82 -60 -7 -5 -14 -10 -17 -10 -2 0 -28
-16 -58 -35 -29 -20 -70 -43 -90 -52 -21 -9 -38 -20 -38 -25 0 -4 -8 -8 -19
-8 -10 0 -24 -7 -31 -15 -7 -8 -19 -15 -26 -15 -8 0 -40 -13 -71 -30 -31 -17
-64 -30 -74 -30 -10 0 -24 -7 -33 -15 -8 -8 -23 -15 -33 -15 -10 0 -31 -7 -47
-15 -15 -8 -35 -15 -43 -15 -8 0 -29 -6 -46 -14 -38 -16 -105 -34 -170 -46
-26 -5 -62 -13 -80 -19 -74 -23 -208 -34 -472 -38 -184 -3 -292 0 -315 7 -19
6 -69 15 -110 20 -90 11 -179 29 -202 41 -9 5 -36 12 -59 15 -24 4 -54 13 -68
21 -14 7 -33 13 -42 13 -9 0 -30 7 -45 15 -16 8 -36 15 -44 15 -8 0 -24 7 -34
15 -11 8 -27 15 -37 15 -9 0 -41 14 -72 30 -31 17 -63 30 -72 30 -8 0 -15 4
-15 8 0 4 -26 20 -57 35 -60 29 -70 34 -141 80 -24 15 -47 27 -52 27 -4 0 -10
3 -12 8 -5 11 -66 52 -78 52 -5 0 -10 4 -10 8 0 5 -29 29 -64 55 -116 85 -350
314 -406 397 -8 12 -25 34 -38 48 -37 44 -132 188 -151 229 -12 26 -47 63 -60
63 -5 0 -13 -9 -16 -21z"/>
</g>
</svg>
